<svg id="Capa_1" enable-background="new 0 0 512 512" height="512" viewBox="0 0 512 512" width="512" xmlns="http://www.w3.org/2000/svg"><g><g><path d="m100.606 456.415h310.789c54.705-44.933 89.605-113.096 89.605-189.415 0-135.31-109.69-245-245-245s-245 109.69-245 245c0 76.319 34.9 144.482 89.606 189.415z" fill="#fc9302"/></g><g><path d="m362.875 487.507c17.425-8.462 33.701-18.921 48.519-31.092l-50.173-135.691h-210.443l-50.173 135.691c14.818 12.171 31.094 22.63 48.519 31.092z" fill="#c92e43"/></g><g><path d="m206.307 487.507c-5.992-6.197-10.701-13.067-14.397-20.1-10.161-19.334 8.96-40.659 29.37-32.881 10.88 4.146 22.487 6.601 34.721 6.601 56.476 0 99.598-52.29 119.471-81.865l-14.25-38.538h-210.444l-50.173 135.691c14.818 12.171 31.094 22.63 48.519 31.092z" fill="#962437"/></g><g><path d="m149.11 487.506c32.303 15.688 68.567 24.494 106.89 24.494s74.587-8.806 106.89-24.494l-61.669-166.782h-90.443z" fill="#eabe8d"/></g><g><path d="m191.909 467.407c-10.161-19.334 8.96-40.659 29.37-32.881 10.88 4.146 22.487 6.601 34.721 6.601 30.116 0 56.432-14.87 77.453-33.234l-32.231-87.169h-90.443l-61.667 166.777c.214.104.43.205.644.308 1.59.766 3.189 1.516 4.798 2.249.433.197.866.393 1.3.588 1.65.74 3.31 1.463 4.98 2.168.259.109.516.222.775.331 1.993.833 3.999 1.642 6.019 2.424.097.038.196.073.294.111 1.84.709 3.693 1.393 5.555 2.06.448.16.897.317 1.345.474 1.616.567 3.239 1.118 4.87 1.652.408.134.815.271 1.224.402 4.028 1.296 8.102 2.49 12.218 3.58.467.124.937.241 1.405.363 1.605.415 3.217.814 4.834 1.197.533.126 1.065.253 1.599.376 1.835.421 3.677.823 5.527 1.203.224.046.447.097.672.143 2.093.423 4.196.817 6.308 1.187.464.081.931.154 1.396.233 1.632.276 3.27.537 4.913.781.629.093 1.259.184 1.89.273 1.622.227 3.248.437 4.88.633.509.061 1.015.128 1.525.186 2.117.24 4.242.456 6.375.642.373.032.748.056 1.121.087 1.757.145 3.52.272 5.287.38.679.041 1.359.077 2.039.113 1.55.082 3.103.148 4.66.201.649.022 1.297.048 1.947.065 2.157.052 4.318.089 6.488.089-34.247-5.263-53.399-24.248-64.091-44.593z" fill="#e3ac6e"/></g><g><path d="m11.428 48.073c1.833-7.043 9.03-11.266 16.07-9.433l14.315 3.725-12.226-23.004c-3.415-6.426-.974-14.403 5.452-17.819 6.42-3.412 14.403-.975 17.818 5.451l36.952 69.527c5.681 10.69 13.705 19.862 23.303 26.92 13.697-18.922 20.069-42.367 17.618-65.843l-1.717-16.44c-.756-7.238 4.5-13.718 11.736-14.473 7.238-.756 13.718 4.499 14.473 11.737l1.717 16.44c2.981 28.547-4.263 57.059-20.074 80.576 1.026.318 2.057.621 3.098.898l111.57 29.636c7.033 1.868 11.22 9.084 9.352 16.117-1.256 4.728-4.927 8.169-9.335 9.35-2.15.576-4.476.615-6.782.002l-111.57-29.637c-8.069-2.143-15.798-5.226-23.05-9.132-.416-.203-.825-.427-1.223-.677-17.833-9.91-32.68-24.842-42.387-43.107l-7.931-14.922-37.747-9.823c-7.042-1.832-11.265-9.027-9.432-16.069z" fill="#7d402d"/></g><g><path d="m251.549 171.438c4.408-1.181 8.079-4.622 9.335-9.35 1.868-7.033-2.319-14.249-9.352-16.117l-111.57-29.636c-1.041-.277-2.072-.58-3.098-.898 15.811-23.517 23.054-52.029 20.073-80.576l-1.717-16.44c-.756-7.238-7.235-12.492-14.473-11.737-7.236.755-12.492 7.236-11.736 14.473l1.717 16.44c2.451 23.475-3.921 46.921-17.618 65.843-8.09 11.613-31.155 7.147-31.275 7.123 7.805 8.555 16.964 15.804 27.088 21.43.398.25.807.474 1.223.677 7.252 3.906 14.981 6.989 23.05 9.132l111.57 29.637c2.307.614 4.633.576 6.783-.001z" fill="#533022"/></g><g><g><path d="m240.617 164.485c2.67-.715 5.137-2.274 6.969-4.622 4.476-5.738 3.452-14.017-2.286-18.493l-28.148-21.954c-6.293-4.908-10.896-11.857-12.962-19.565l-6.283-23.45c-1.883-7.029-9.108-11.2-16.137-9.317s-11.2 9.108-9.317 16.137l6.283 23.45c3.539 13.208 11.426 25.114 22.21 33.524l28.147 21.954c3.39 2.644 7.668 3.369 11.524 2.336z" fill="#533022"/></g></g><g><g><path d="m500.572 48.073c-1.833-7.043-9.03-11.266-16.07-9.433l-14.315 3.725 12.226-23.004c3.415-6.426.974-14.403-5.452-17.819-6.42-3.412-14.403-.975-17.818 5.451l-36.952 69.527c-5.681 10.69-13.705 19.862-23.303 26.92-13.697-18.922-20.069-42.367-17.618-65.843l1.717-16.44c.756-7.238-4.5-13.718-11.736-14.473-7.238-.756-13.717 4.499-14.473 11.737l-1.717 16.44c-2.981 28.547 4.263 57.059 20.073 80.576-1.026.318-2.057.621-3.098.898l-111.57 29.636c-7.033 1.868-11.22 9.084-9.352 16.117 1.256 4.728 4.927 8.169 9.335 9.35 2.15.576 4.476.615 6.782.002l111.57-29.637c8.069-2.143 15.798-5.226 23.05-9.132.416-.203.825-.427 1.223-.677 17.833-9.91 32.68-24.842 42.387-43.107l7.931-14.922 37.747-9.823c7.043-1.832 11.266-9.027 9.433-16.069z" fill="#7d402d"/></g><g><g><path d="m271.383 164.485c-2.67-.715-5.137-2.274-6.969-4.622-4.476-5.738-3.452-14.017 2.287-18.493l28.148-21.954c6.293-4.908 10.896-11.857 12.962-19.565l6.283-23.45c1.883-7.029 9.108-11.2 16.137-9.317s11.2 9.108 9.317 16.137l-6.283 23.45c-3.539 13.208-11.426 25.114-22.21 33.524l-28.148 21.954c-3.39 2.644-7.668 3.369-11.524 2.336z" fill="#533022"/></g></g></g><g><path d="m260.451 171.438c-4.408-1.181-8.079-4.622-9.335-9.35-1.868-7.033 2.319-14.249 9.352-16.117l111.57-29.636c1.041-.277 2.072-.58 3.098-.898-15.811-23.517-23.054-52.029-20.073-80.576l1.717-16.44c.756-7.238 7.235-12.492 14.473-11.737 7.236.755 12.492 7.236 11.736 14.473l-1.717 16.44c-2.451 23.475 3.921 46.921 17.618 65.843 8.09 11.613 31.155 7.147 31.275 7.123-7.805 8.555-16.964 15.804-27.088 21.43-.398.25-.807.474-1.223.677-7.252 3.906-14.981 6.989-23.05 9.132l-111.57 29.637c-2.307.614-4.633.576-6.783-.001z" fill="#533022"/></g><g><path d="m134.871 171.344c-.001 0-27.523 15.892-41.681 43.273-3.697 7.15 3.788 14.901 11.035 11.398l.303-.147s-16.963 32.691 4.109 76.137c3.002 6.189 11.819 6.232 14.939.103l.993-1.951s9.134 26.768 30.23 51.08c3.887 4.479 11.074 3.61 13.765-1.675l4.034-7.922 83.4 61.6 83.4-61.6 4.034 7.922c2.691 5.285 9.878 6.154 13.765 1.675 21.096-24.312 30.23-51.08 30.23-51.08l.993 1.951c3.121 6.13 11.938 6.086 14.939-.103 21.072-43.447 4.109-76.137 4.109-76.137l.303.147c7.247 3.503 14.733-4.248 11.035-11.398-14.158-27.381-41.681-43.272-41.681-43.273z" fill="#841930"/></g><g><path d="m308.612 105.219c-9.107 0-17.532 2.916-24.394 7.865-7.752 5.591-16.945 8.837-26.503 8.837h-3.43c-9.558 0-18.751-3.247-26.503-8.837-6.862-4.949-15.287-7.865-24.394-7.865-43.351 0-78.92 62.627-78.92 106.894 0 30.621 53.31 25.053 67.229 91.305s44.989 96.316 64.303 96.316 50.385-30.064 64.303-96.316c13.919-66.252 67.229-60.685 67.229-91.305 0-44.267-35.569-106.894-78.92-106.894z" fill="#c92e43"/></g><g><path d="m297.143 366.049c-132.61-82.481-91.007-260.733-91.007-260.733-.909-.059-1.824-.097-2.748-.097-43.351 0-78.92 62.627-78.92 106.894 0 30.621 53.31 25.053 67.229 91.305s44.989 96.316 64.303 96.316c11.568 0 27.352-10.799 41.143-33.685z" fill="#962437"/></g><g><path d="m256 226.382c-31.858 0-38.93 94.342-38.93 94.342h77.86s-7.072-94.342-38.93-94.342z" fill="#962437"/></g><g><path d="m256 226.382c-31.858 0-38.93 94.342-38.93 94.342h30s4.741-63.192 23.93-86.135c-4.255-5.088-9.217-8.207-15-8.207z" fill="#841930"/></g><g><circle cx="202.963" cy="213.856" fill="#00141e" r="12.527"/></g><g><circle cx="309.037" cy="213.856" fill="#00141e" r="12.527"/></g><g><circle cx="319.037" cy="205.504" fill="#fff" r="6.263"/></g><g><circle cx="192.963" cy="205.504" fill="#fff" r="6.263"/></g><g><ellipse cx="256" cy="384.736" fill="#962437" rx="38.93" ry="30.434"/></g><g><path d="m214.856 356.713c-2.249 0-4.472-1.006-5.949-2.926-16.43-21.349-34.561-34.34-53.889-38.612-13.763-3.044-25.017-1.229-36.932.689-13.87 2.236-28.213 4.547-45.24-1.744-18.167-6.712-33.415-20.997-45.321-42.46-2.009-3.623-.702-8.188 2.92-10.197 3.622-2.011 8.188-.701 10.197 2.921 10.115 18.234 22.699 30.234 37.402 35.666 13.331 4.926 24.604 3.108 37.655 1.006 12.185-1.964 25.995-4.189 42.556-.527 22.86 5.054 43.9 19.895 62.537 44.11 2.526 3.282 1.914 7.991-1.369 10.518-1.361 1.048-2.97 1.556-4.567 1.556z" fill="#fdbf43"/></g><g><path d="m297.144 356.713c-1.597 0-3.205-.507-4.568-1.557-3.282-2.526-3.896-7.235-1.369-10.518 18.636-24.216 39.676-39.057 62.536-44.11 16.562-3.663 30.372-1.437 42.557.527 13.051 2.103 24.323 3.92 37.655-1.006 14.703-5.432 27.287-17.432 37.402-35.666 2.009-3.622 6.572-4.931 10.197-2.921 3.622 2.01 4.929 6.574 2.92 10.197-11.906 21.463-27.154 35.748-45.32 42.46-17.027 6.292-31.37 3.98-45.24 1.744-11.914-1.919-23.166-3.733-36.933-.689-19.327 4.272-37.458 17.264-53.888 38.612-1.477 1.92-3.7 2.927-5.949 2.927z" fill="#fdbf43"/></g><g><path d="m283.643 296.362c-4.913 0-9.537 1.85-13.58 5.111-8.214 6.625-19.911 6.625-28.125 0-4.043-3.261-8.667-5.111-13.58-5.111-15.871 0-28.738 19.299-28.738 43.106s12.866 43.106 28.738 43.106c4.913 0 9.537-1.85 13.58-5.111 8.214-6.625 19.911-6.625 28.125 0 4.043 3.261 8.667 5.111 13.58 5.111 15.871 0 28.738-19.299 28.738-43.106s-12.867-43.106-28.738-43.106z" fill="#fd4343"/></g><g><path d="m223.921 208.942-48.399-12.969c-6.683-1.791-10.648-8.659-8.858-15.342 1.791-6.683 8.659-10.648 15.342-8.858l48.399 12.969c6.683 1.791 10.648 8.659 8.858 15.342-1.791 6.683-8.66 10.649-15.342 8.858z" fill="#fd4343"/></g><g><path d="m288.079 208.942 48.399-12.969c6.683-1.791 10.648-8.659 8.858-15.342-1.791-6.683-8.659-10.648-15.342-8.858l-48.399 12.969c-6.683 1.791-10.648 8.659-8.858 15.342 1.791 6.683 8.66 10.649 15.342 8.858z" fill="#fd4343"/></g><g><path d="m248.772 305.241-.002-.003c-2.426-.828-4.743-2.079-6.833-3.765-4.043-3.261-8.667-5.111-13.58-5.111-15.871 0-28.738 19.299-28.738 43.106s12.866 43.106 28.738 43.106c4.913 0 9.537-1.85 13.58-5.111 8.214-6.625 19.911-6.625 28.125 0-15.873-13.536-27.019-48.761-21.29-72.222z" fill="#c92e43"/></g></g></svg>